<?xml version="1.0" standalone="no"?>
<!DOCTYPE svg PUBLIC "-//W3C//DTD SVG 20010904//EN"
 "http://www.w3.org/TR/2001/REC-SVG-20010904/DTD/svg10.dtd">
<svg version="1.0" xmlns="http://www.w3.org/2000/svg"
 width="761.000000pt" height="761.000000pt" viewBox="0 0 761.000000 761.000000"
 preserveAspectRatio="xMidYMid meet">
<metadata>
Created by potrace 1.14, written by Peter Selinger 2001-2017
</metadata>
<g transform="translate(0.000000,761.000000) scale(0.100000,-0.100000)"
fill="#000000" stroke="none">
<path d="M3788 7606 c-1 -2 -48 -6 -103 -10 -55 -3 -111 -8 -125 -10 -14 -3
-52 -7 -85 -10 -33 -3 -69 -8 -80 -10 -11 -2 -42 -7 -70 -10 -234 -30 -595
-117 -870 -210 -282 -96 -498 -190 -765 -334 -62 -34 -242 -148 -278 -177 -9
-7 -66 -52 -127 -100 -525 -419 -894 -984 -1099 -1685 -20 -69 -38 -135 -41
-147 -3 -13 -7 -33 -10 -45 -2 -13 -8 -36 -12 -53 -4 -16 -7 -32 -8 -35 -1 -3
-5 -25 -10 -50 -5 -25 -9 -47 -10 -50 0 -3 -4 -27 -9 -53 -4 -27 -9 -56 -11
-65 -1 -10 -6 -46 -10 -82 -3 -36 -8 -72 -10 -80 -25 -95 -25 -747 -1 -865 2
-11 7 -51 12 -90 4 -38 8 -72 9 -75 1 -3 5 -25 9 -50 11 -68 44 -228 61 -295
9 -33 17 -69 20 -79 25 -105 100 -327 165 -491 39 -99 191 -408 223 -455 12
-19 26 -43 30 -53 11 -29 173 -272 239 -361 259 -341 567 -639 903 -873 194
-135 458 -283 665 -373 41 -18 89 -38 105 -45 367 -159 904 -272 1321 -276 81
-1 419 9 519 16 110 8 272 27 350 41 10 2 37 6 60 10 77 11 269 55 371 84 439
128 810 313 1174 584 382 285 721 658 970 1070 69 113 190 353 190 375 0 13
30 11 -310 25 -91 4 -210 9 -265 11 -55 3 -170 7 -255 10 -85 3 -188 7 -228 9
l-72 3 -10 -41 c-19 -77 -92 -301 -101 -311 -5 -5 -9 -15 -9 -23 0 -17 -83
-184 -139 -280 -68 -117 -187 -269 -295 -377 -97 -97 -268 -234 -345 -276 -20
-11 -61 -34 -91 -51 -140 -80 -381 -168 -530 -194 -14 -3 -33 -7 -42 -10 -82
-25 -490 -39 -573 -21 -11 3 -45 8 -75 12 -63 8 -217 45 -305 73 -308 100
-644 310 -943 587 -66 61 -198 195 -247 250 -117 132 -329 419 -410 557 -94
159 -112 192 -161 288 -128 253 -227 525 -304 830 -35 139 -80 370 -95 490 -3
25 -8 56 -10 70 -4 23 -7 54 -21 200 -22 242 -22 754 0 935 2 17 7 66 11 110
4 44 9 92 11 108 8 67 25 194 29 216 2 13 7 45 10 70 12 85 75 311 116 414
113 285 271 504 523 726 123 108 368 246 551 311 220 77 427 111 690 112 182
2 286 -8 454 -43 192 -39 377 -103 569 -196 132 -63 150 -73 287 -162 175
-113 437 -352 571 -521 32 -41 61 -77 64 -80 11 -10 147 -216 173 -261 47 -82
125 -243 143 -296 l19 -53 50 -1 c27 -1 82 -2 120 -4 39 -1 149 -6 245 -9 96
-4 211 -9 255 -11 90 -4 387 -16 515 -20 105 -4 401 -15 493 -20 37 -2 67 -2
67 -1 0 11 -86 239 -115 304 -165 376 -468 772 -825 1083 -397 344 -905 606
-1440 742 -52 14 -113 28 -135 32 -22 5 -44 9 -50 11 -29 6 -186 34 -225 39
-25 3 -52 8 -60 10 -8 2 -42 6 -75 10 -33 3 -82 8 -110 11 -27 4 -68 8 -90 10
-50 5 -662 14 -667 10z"/>
<path d="M3462 6107 c-50 -28 -72 -97 -46 -147 7 -14 82 -121 167 -239 l155
-214 -87 -116 c-47 -64 -99 -135 -116 -158 -16 -23 -59 -81 -94 -128 -70 -96
-85 -137 -66 -182 24 -56 54 -70 155 -72 106 -2 150 9 178 47 11 15 66 90 122
167 57 77 106 144 110 148 4 4 64 -71 133 -167 144 -198 141 -196 276 -196 97
0 126 11 157 57 35 52 21 91 -82 233 -90 124 -112 155 -194 270 -25 34 -51 71
-59 81 -12 17 -9 26 30 82 24 34 49 69 56 77 7 8 46 62 87 120 41 58 80 110
85 117 6 7 11 17 11 23 0 5 3 10 8 10 11 0 31 36 37 68 7 42 -19 99 -55 117
-42 22 -212 21 -248 -1 -15 -9 -74 -81 -131 -160 l-104 -143 -47 62 c-25 34
-74 101 -108 148 -34 47 -73 91 -87 97 -35 16 -214 15 -243 -1z"/>
<path d="M3503 4469 c-15 -3 -38 -11 -49 -17 -26 -14 -54 -70 -49 -97 2 -11 4
-25 4 -32 1 -11 87 -133 243 -344 l86 -116 -61 -84 c-34 -46 -104 -142 -157
-214 -138 -186 -152 -209 -152 -248 0 -41 25 -83 61 -101 33 -17 204 -20 234
-5 28 14 33 21 168 207 61 83 113 152 114 152 2 0 58 -76 125 -168 66 -93 133
-175 148 -184 19 -11 55 -15 125 -15 114 0 154 18 173 77 16 48 5 78 -64 173
-32 45 -111 155 -176 244 -73 102 -114 168 -110 175 4 7 72 102 151 212 79
109 148 207 154 218 29 53 16 112 -33 148 -28 21 -42 23 -125 23 -101 -1 -140
-11 -165 -46 -9 -12 -59 -79 -110 -149 l-94 -127 -104 145 c-61 85 -116 152
-132 160 -30 15 -156 23 -205 13z"/>
<path d="M3495 2822 c-29 -6 -73 -40 -79 -60 -20 -65 -17 -78 37 -155 46 -66
188 -265 210 -292 4 -5 22 -30 41 -55 l34 -46 -165 -224 c-207 -283 -203 -276
-203 -328 0 -36 6 -49 31 -73 34 -32 29 -31 153 -33 92 -1 127 8 152 42 8 9
55 75 106 146 51 70 102 140 114 154 l21 25 124 -171 c83 -115 134 -176 154
-185 44 -21 214 -16 248 6 34 22 49 51 49 92 0 44 -3 50 -182 295 -86 118
-162 225 -168 237 -10 19 6 45 147 241 88 123 161 235 165 252 8 40 -15 93
-49 116 -21 14 -49 18 -125 18 -115 0 -135 -8 -181 -73 -18 -25 -38 -51 -44
-57 -5 -6 -39 -52 -74 -102 l-64 -91 -31 42 c-131 182 -191 259 -208 268 -20
11 -176 19 -213 11z"/>
</g>
</svg>
